<svg class="icon" style="width: 1.0224609375em;height: 1em;vertical-align: middle;fill: currentColor;overflow: hidden;" viewBox="0 0 1047 1024" version="1.1" xmlns="http://www.w3.org/2000/svg" p-id="8902"><path d="M916.086774 364.92113V347.143345A346.883616 346.883616 0 0 0 246.601395 220.530825 281.409333 281.409333 0 0 0 265.679994 780.747864h563.685876a216.80226 216.80226 0 0 0 86.720904-415.826734z" fill="#24D6ED" p-id="8903"></path><path d="M893.539339 386.601356V368.823571a346.883616 346.883616 0 0 0-574.525989-260.162712 346.883616 346.883616 0 0 0-73.279164 112.737175c-4.76965 0-9.105695 2.168023-13.875344 3.468836a346.883616 346.883616 0 0 0 395.447322 482.168226 218.970282 218.970282 0 0 0 86.720904 75.013582H829.36587a216.80226 216.80226 0 0 0 141.355073-53.76696 216.80226 216.80226 0 0 0-77.181604-340.379548z" fill="#1EB6C1" p-id="8904"></path><path d="M916.086774 364.92113V347.143345a346.883616 346.883616 0 1 0-267.100384 337.344316A216.80226 216.80226 0 1 0 916.086774 364.92113z" fill="#22E6EF" p-id="8905"></path><path d="M551.858977 780.747864v-204.227728h122.710079a21.680226 21.680226 0 0 0 15.176159-36.856384L525.842706 375.327639a21.680226 21.680226 0 0 0-30.785921 0l-165.203322 164.336113a21.680226 21.680226 0 0 0 15.176158 36.856384h120.108452V780.747864z" fill="#23BDC9" p-id="8906"></path><path d="M525.842706 375.327639a21.680226 21.680226 0 0 0-30.785921 0l-165.203322 164.336113a21.680226 21.680226 0 0 0 15.176158 36.856384h120.108452v130.081356a346.883616 346.883616 0 0 0 82.384859 10.406508h4.336045v-138.753446h122.710079a21.680226 21.680226 0 0 0 15.176159-36.856384z" fill="#1AA0A3" p-id="8907"></path><path d="M525.842706 375.327639a21.680226 21.680226 0 0 0-30.785921 0l-165.203322 164.336113a21.680226 21.680226 0 0 0 15.176158 36.856384h120.108452v101.463457a346.883616 346.883616 0 0 0 86.720904 15.176159v-116.639616h122.710079a21.680226 21.680226 0 0 0 15.176159-36.856384z" fill="#20CECE" p-id="8908"></path><path d="M711.42544 517.983526l-164.769717-164.336113a21.680226 21.680226 0 0 0-30.785921 0L352.400898 517.983526a21.680226 21.680226 0 0 0 15.176158 36.856384h119.241243v425.366034a43.360452 43.360452 0 0 0 86.720904 0v-425.366034h122.710079a21.680226 21.680226 0 0 0 15.176158-36.856384z" fill="#FFEC00" p-id="8909"></path></svg>
